Coordinates
version=1
nRows=22
nColumns=24
inDegrees=yes

Units are S.I. units (second, meters, Newtons, ...)
Angles are in degrees.

endheader
time	pelvis_tilt	pelvis_list	pelvis_rotation	pelvis_tx	pelvis_ty	pelvis_tz	hip_flexion_r	hip_adduction_r	hip_rotation_r	knee_angle_r	ankle_angle_r	subtalar_angle_r	mtp_angle_r	hip_flexion_l	hip_adduction_l	hip_rotation_l	knee_angle_l	ankle_angle_l	subtalar_angle_l	mtp_angle_l	lumbar_extension	lumbar_bending	lumbar_rotation
      8.10000000	      3.38703462	     -4.37917145	     -0.72672379	      2.21969583	      0.94003427	     -0.17843280	     19.28228356	      5.52116641	     -5.11138409	    -48.30745719	      5.54623007	    -12.47320226	      0.00000000	      0.17954367	      0.92248881	      0.11101318	    -10.55898373	     11.29336158	     -7.05724254	      0.00000000	    -22.92225329	      5.90394121	      2.31579464
      8.11000000	      3.31445522	     -4.43820860	     -0.60313816	      2.22806975	      0.94003700	     -0.17861751	     19.54449316	      5.59687887	     -5.28481778	    -45.63035975	      5.88855880	    -13.06407164	      0.00000000	     -0.53884264	      0.88856343	      0.28319293	    -10.12363543	     11.58928534	     -7.11409877	      0.00000000	    -22.86745040	      6.00534371	      2.18661211
      8.12000000	      3.24962098	     -4.46902258	     -0.48916621	      2.23648020	      0.93991457	     -0.17874378	     19.69686590	      5.63751451	     -5.49468132	    -42.74178397	      6.14965368	    -13.51057751	      0.00000000	     -1.26454533	      0.88487220	      0.48300511	     -9.69479662	     11.83236341	     -7.29476586	      0.00000000	    -22.82267088	      6.06009373	      2.09016328
      8.13000000	      3.15758415	     -4.47596326	     -0.33877695	      2.24492766	      0.93962389	     -0.17886731	     19.78413425	      5.62382654	     -5.82917996	    -39.66939962	      6.44492055	    -13.54568118	      0.00000000	     -1.93124970	      0.89702219	      0.69254420	     -9.32284253	     12.14514366	     -7.36177698	      0.00000000	    -22.73475828	      6.09105215	      1.95682325
      8.14000000	      3.14116814	     -4.43488603	     -0.18557702	      2.25342560	      0.93930918	     -0.17893096	     19.69403866	      5.57612853	     -6.16534361	    -36.42971454	      6.73385555	    -13.25049655	      0.00000000	     -2.69146937	      0.95768926	      0.97318890	     -8.93617766	     12.37408645	     -7.49180849	      0.00000000	    -22.73706422	      6.05182816	      1.80718228
      8.15000000	      3.10976259	     -4.36323966	     -0.00609750	      2.26197404	      0.93882269	     -0.17897356	     19.54789427	      5.47879548	     -6.63737253	    -33.07929947	      7.12692433	    -12.49006829	      0.00000000	     -3.41358293	      1.04169882	      1.27304883	     -8.59022404	     12.58614202	     -7.68773674	      0.00000000	    -22.70781097	      5.97679317	      1.64814944
      8.16000000	      3.07495950	     -4.24867299	      0.20582456	      2.27056033	      0.93818673	     -0.17899627	     19.34356116	      5.33845553	     -7.19138186	    -29.65470114	      7.47916706	    -11.30680359	      0.00000000	     -4.10609822	      1.15909410	      1.59772623	     -8.29628183	     12.84440376	     -7.81804182	      0.00000000	    -22.66650564	      5.85356465	      1.42626779
      8.17000000	      3.05900376	     -4.08781310	      0.44565641	      2.27921073	      0.93742944	     -0.17899216	     19.07008307	      5.15879495	     -7.82002387	    -26.19756413	      7.82009881	     -9.77695220	      0.00000000	     -4.80616542	      1.31113006	      1.90810812	     -8.03106180	     13.12241297	     -7.88923352	      0.00000000	    -22.63361789	      5.67909914	      1.17560675
      8.18000000	      3.05570407	     -3.88504158	      0.70846896	      2.28791457	      0.93654585	     -0.17896088	     18.74946302	      4.95141834	     -8.49873979	    -22.75137465	      8.10080033	     -7.97948071	      0.00000000	     -5.50555370	      1.49436460	      2.22351710	     -7.80097764	     13.43066371	     -7.92207282	      0.00000000	    -22.60964710	      5.45614468	      0.88503033
      8.19000000	      3.06912371	     -3.64725709	      0.98641113	      2.29668092	      0.93555296	     -0.17889530	     18.38913380	      4.73043225	     -9.19296805	    -19.35233431	      8.31386390	     -6.02470258	      0.00000000	     -6.21751997	      1.70140621	      2.53738598	     -7.59126023	     13.75868093	     -7.92790117	      0.00000000	    -22.59976334	      5.19350284	      0.56738839
      8.20000000	      3.13468427	     -3.39150384	      1.29838874	      2.30551732	      0.93452431	     -0.17880110	     17.93760874	      4.53073622	     -9.76857307	    -15.99219304	      8.43981027	     -4.20526220	      0.00000000	     -6.97775990	      1.90706931	      2.84928899	     -7.40609905	     14.07115853	     -7.87512525	      0.00000000	    -22.65489204	      4.91810625	      0.19597100
      8.21000000	      3.12827501	     -3.10329808	      1.56188807	      2.31440196	      0.93329010	     -0.17864609	     17.58798720	      4.30397538	    -10.39072888	    -12.80272906	      8.49878773	     -2.20815755	      0.00000000	     -7.65666983	      2.14911120	      3.13577962	     -7.24666987	     14.43251557	     -7.88626976	      0.00000000	    -22.61837732	      4.59479597	     -0.08676603
      8.22000000	      3.17824738	     -2.85282053	      1.87025570	      2.32340463	      0.93206345	     -0.17846515	     17.11625633	      4.16307528	    -10.67755361	     -9.64548098	      8.37512241	     -0.91290597	      0.00000000	     -8.39077827	      2.32467334	      3.41706100	     -7.11158776	     14.75927101	     -7.81042906	      0.00000000	    -22.63966820	      4.33777023	     -0.43010159
      8.23000000	      3.20017579	     -2.53907332	      2.09527169	      2.33244263	      0.93073610	     -0.17818354	     16.74110010	      3.94584516	    -11.10414785	     -6.77997450	      8.38447801	      0.65502698	      0.00000000	     -9.11100253	      2.57540164	      3.63476993	     -6.96503101	     15.10272745	     -7.77619866	      0.00000000	    -22.63843420	      3.97430075	     -0.68682684
      8.24000000	      3.21375906	     -2.28308317	      2.35888771	      2.34159901	      0.92936048	     -0.17789095	     16.34164060	      3.80092758	    -11.23878048	     -4.03215040	      8.19887699	      1.40461678	      0.00000000	     -9.81068835	      2.74440840	      3.87377153	     -6.85650930	     15.45409219	     -7.67551014	      0.00000000	    -22.61135169	      3.70497362	     -0.98319680
      8.25000000	      3.21192635	     -1.99615115	      2.57088777	      2.35077473	      0.92794606	     -0.17750983	     16.01704239	      3.61540867	    -11.41559895	     -1.57644304	      7.98553158	      1.95433365	      0.00000000	    -10.48446298	      2.94996724	      4.07772566	     -6.78150856	     15.80128038	     -7.57629470	      0.00000000	    -22.58655554	      3.37847590	     -1.22101351
      8.26000000	      3.26967792	     -1.79977015	      2.72801660	      2.36008379	      0.92662366	     -0.17698972	     15.69278438	      3.53069573	    -11.81972334	      0.55870642	      7.91990112	      2.66382779	      0.00000000	    -11.22779363	      3.04997264	      4.10776498	     -6.70758584	     16.09186369	     -7.40906846	      0.00000000	    -22.62970486	      3.14856709	     -1.36239806
      8.27000000	      3.23693207	     -1.60597752	      2.90397842	      2.36942223	      0.92518623	     -0.17643694	     15.53149430	      3.43297056	    -12.22093069	      2.35736247	      7.67139762	      2.85092267	      0.00000000	    -11.84629810	      3.14475892	      4.24704268	     -6.69679185	     16.38953220	     -7.29466467	      0.00000000	    -22.56438104	      2.92376348	     -1.55447455
      8.28000000	      3.28257441	     -1.48791808	      3.02531754	      2.37890154	      0.92387820	     -0.17574957	     15.35614787	      3.42522114	    -12.66041547	      3.77855122	      7.51174562	      3.04174121	      0.00000000	    -12.56523832	      3.15189157	      4.23419108	     -6.66447518	     16.66263471	     -7.10899722	      0.00000000	    -22.58771083	      2.78434099	     -1.67534379
      8.29000000	      3.28526933	     -1.37783636	      3.13277664	      2.38841043	      0.92255373	     -0.17500506	     15.31281163	      3.41102890	    -13.12277777	      4.78505243	      7.31088119	      3.06406174	      0.00000000	    -13.19668833	      3.15331034	      4.23099987	     -6.71867013	     16.89671293	     -6.95063392	      0.00000000	    -22.57111932	      2.64651529	     -1.78165968
      8.30000000	      3.33043133	     -1.31918683	      3.20700814	      2.39805260	      0.92133097	     -0.17417215	     15.28994113	      3.44305631	    -13.52002610	      5.38077452	      7.19340331	      3.06924933	      0.00000000	    -13.88296084	      3.09404986	      4.13369034	     -6.76200195	     17.12565268	     -6.71216854	      0.00000000	    -22.59802231	      2.57057982	     -1.87940586
      8.31000000	      3.34697372	     -1.25872241	      3.26941169	      2.40775498	      0.92013187	     -0.17330239	     15.35697251	      3.44972676	    -13.84161078	      5.57824083	      7.06447648	      3.00343133	      0.00000000	    -14.50840773	      3.03925101	      4.09531440	     -6.87378375	     17.25649735	     -6.54266922	      0.00000000	    -22.60271087	      2.48938562	     -1.96891443
